<?xml version="1.0" encoding="UTF-8" standalone="no"?>
<!DOCTYPE svg PUBLIC "-//W3C//DTD SVG 1.1//EN" "http://www.w3.org/Graphics/SVG/1.1/DTD/svg11.dtd">
<!-- Generated by graphviz version 2.40.1 (20161225.0304)
 -->
<!-- Title: G Pages: 1 -->
<svg width="319pt" height="44pt" viewBox="0.00 0.00 319.18 44.00" xmlns="http://www.w3.org/2000/svg" xmlns:xlink="http://www.w3.org/1999/xlink">
<g id="graph0" class="graph" transform="scale(1 1) rotate(0) translate(4 40)">
<title>G</title>
<polygon fill="#ffffff" stroke="transparent" points="-4,4 -4,-40 315.181,-40 315.181,4 -4,4"/>
<!-- Source image -->
<g id="node1" class="node">
<title>Source image</title>
<polygon fill="none" stroke="#000000" points="92.3751,-36 .2077,-36 .2077,0 92.3751,0 92.3751,-36"/>
<text text-anchor="middle" x="46.2914" y="-13.8" font-family="Times,serif" font-size="14.00" fill="#000000">Source image</text>
</g>
<!-- Effect -->
<g id="node2" class="node">
<title>Effect</title>
<polygon fill="none" stroke="#000000" points="182.5828,-36 128.5828,-36 128.5828,0 182.5828,0 182.5828,-36"/>
<text text-anchor="middle" x="155.5828" y="-13.8" font-family="Times,serif" font-size="14.00" fill="#000000">Effect</text>
</g>
<!-- Source image&#45;&gt;Effect -->
<g id="edge1" class="edge">
<title>Source image-&gt;Effect</title>
<path fill="none" stroke="#000000" d="M92.6408,-18C101.2312,-18 110.1017,-18 118.3762,-18"/>
<polygon fill="#000000" stroke="#000000" points="118.4727,-21.5001 128.4726,-18 118.4726,-14.5001 118.4727,-21.5001"/>
</g>
<!-- Output image -->
<g id="node3" class="node">
<title>Output image</title>
<polygon fill="none" stroke="#000000" points="310.981,-36 218.7828,-36 218.7828,0 310.981,0 310.981,-36"/>
<text text-anchor="middle" x="264.8819" y="-13.8" font-family="Times,serif" font-size="14.00" fill="#000000">Output image</text>
</g>
<!-- Effect&#45;&gt;Output image -->
<g id="edge2" class="edge">
<title>Effect-&gt;Output image</title>
<path fill="none" stroke="#000000" d="M182.6006,-18C190.5006,-18 199.446,-18 208.4559,-18"/>
<polygon fill="#000000" stroke="#000000" points="208.6035,-21.5001 218.6035,-18 208.6035,-14.5001 208.6035,-21.5001"/>
</g>
</g>
</svg>