<?xml version="1.0" encoding="UTF-8" standalone="no"?>
<!DOCTYPE svg PUBLIC "-//W3C//DTD SVG 1.1//EN" "http://www.w3.org/Graphics/SVG/1.1/DTD/svg11.dtd">
<!-- Generated by graphviz version 2.40.1 (20161225.0304)
 -->
<!-- Title: G Pages: 1 -->
<svg width="330pt" height="98pt" viewBox="0.00 0.00 329.68 98.00" xmlns="http://www.w3.org/2000/svg" xmlns:xlink="http://www.w3.org/1999/xlink">
<g id="graph0" class="graph" transform="scale(1 1) rotate(0) translate(4 94)">
<title>G</title>
<polygon fill="#ffffff" stroke="transparent" points="-4,4 -4,-94 325.681,-94 325.681,4 -4,4"/>
<!-- Source image 1 -->
<g id="node1" class="node">
<title>Source image 1</title>
<polygon fill="none" stroke="#000000" points="103.1242,-90 -.0414,-90 -.0414,-54 103.1242,-54 103.1242,-90"/>
<text text-anchor="middle" x="51.5414" y="-67.8" font-family="Times,serif" font-size="14.00" fill="#000000">Source image 1</text>
</g>
<!-- Effect -->
<g id="node2" class="node">
<title>Effect</title>
<polygon fill="none" stroke="#000000" points="193.0828,-63 139.0828,-63 139.0828,-27 193.0828,-27 193.0828,-63"/>
<text text-anchor="middle" x="166.0828" y="-40.8" font-family="Times,serif" font-size="14.00" fill="#000000">Effect</text>
</g>
<!-- Source image 1&#45;&gt;Effect -->
<g id="edge1" class="edge">
<title>Source image 1-&gt;Effect</title>
<path fill="none" stroke="#000000" d="M103.1158,-59.8427C111.8965,-57.7729 120.8576,-55.6606 129.1625,-53.703"/>
<polygon fill="#000000" stroke="#000000" points="129.9807,-57.1061 138.9109,-51.405 128.3746,-50.2928 129.9807,-57.1061"/>
</g>
<!-- Output image -->
<g id="node4" class="node">
<title>Output image</title>
<polygon fill="none" stroke="#000000" points="321.481,-63 229.2828,-63 229.2828,-27 321.481,-27 321.481,-63"/>
<text text-anchor="middle" x="275.3819" y="-40.8" font-family="Times,serif" font-size="14.00" fill="#000000">Output image</text>
</g>
<!-- Effect&#45;&gt;Output image -->
<g id="edge3" class="edge">
<title>Effect-&gt;Output image</title>
<path fill="none" stroke="#000000" d="M193.1006,-45C201.0006,-45 209.946,-45 218.9559,-45"/>
<polygon fill="#000000" stroke="#000000" points="219.1035,-48.5001 229.1035,-45 219.1035,-41.5001 219.1035,-48.5001"/>
</g>
<!-- Source image 2 -->
<g id="node3" class="node">
<title>Source image 2</title>
<polygon fill="none" stroke="#000000" points="103.1242,-36 -.0414,-36 -.0414,0 103.1242,0 103.1242,-36"/>
<text text-anchor="middle" x="51.5414" y="-13.8" font-family="Times,serif" font-size="14.00" fill="#000000">Source image 2</text>
</g>
<!-- Source image 2&#45;&gt;Effect -->
<g id="edge2" class="edge">
<title>Source image 2-&gt;Effect</title>
<path fill="none" stroke="#000000" d="M103.1158,-30.1573C111.8965,-32.2271 120.8576,-34.3394 129.1625,-36.297"/>
<polygon fill="#000000" stroke="#000000" points="128.3746,-39.7072 138.9109,-38.595 129.9807,-32.8939 128.3746,-39.7072"/>
</g>
</g>
</svg>