<?xml version="1.0" encoding="UTF-8" standalone="no"?>
<!DOCTYPE svg PUBLIC "-//W3C//DTD SVG 1.1//EN" "http://www.w3.org/Graphics/SVG/1.1/DTD/svg11.dtd">
<!-- Generated by graphviz version 2.40.1 (20161225.0304)
 -->
<!-- Title: G Pages: 1 -->
<svg width="433pt" height="98pt" viewBox="0.00 0.00 433.07 98.00" xmlns="http://www.w3.org/2000/svg" xmlns:xlink="http://www.w3.org/1999/xlink">
<g id="graph0" class="graph" transform="scale(1 1) rotate(0) translate(4 94)">
<title>G</title>
<polygon fill="#ffffff" stroke="transparent" points="-4,4 -4,-94 429.0682,-94 429.0682,4 -4,4"/>
<!-- Source image 1 -->
<g id="node1" class="node">
<title>Source image 1</title>
<polygon fill="none" stroke="#000000" points="103.1242,-90 -.0414,-90 -.0414,-54 103.1242,-54 103.1242,-90"/>
<text text-anchor="middle" x="51.5414" y="-67.8" font-family="Times,serif" font-size="14.00" fill="#000000">Source image 1</text>
</g>
<!-- Effect 1 -->
<g id="node2" class="node">
<title>Effect 1</title>
<polygon fill="none" stroke="#000000" points="199.624,-63 139.2352,-63 139.2352,-27 199.624,-27 199.624,-63"/>
<text text-anchor="middle" x="169.4296" y="-40.8" font-family="Times,serif" font-size="14.00" fill="#000000">Effect 1</text>
</g>
<!-- Source image 1&#45;&gt;Effect 1 -->
<g id="edge1" class="edge">
<title>Source image 1-&gt;Effect 1</title>
<path fill="none" stroke="#000000" d="M103.2489,-60.1574C111.9574,-58.1629 120.8799,-56.1194 129.2404,-54.2046"/>
<polygon fill="#000000" stroke="#000000" points="130.1413,-57.5889 139.1076,-51.9447 128.5785,-50.7656 130.1413,-57.5889"/>
</g>
<!-- Effect 2 -->
<g id="node4" class="node">
<title>Effect 2</title>
<polygon fill="none" stroke="#000000" points="296.3176,-63 235.9288,-63 235.9288,-27 296.3176,-27 296.3176,-63"/>
<text text-anchor="middle" x="266.1232" y="-40.8" font-family="Times,serif" font-size="14.00" fill="#000000">Effect 2</text>
</g>
<!-- Effect 1&#45;&gt;Effect 2 -->
<g id="edge3" class="edge">
<title>Effect 1-&gt;Effect 2</title>
<path fill="none" stroke="#000000" d="M199.7588,-45C208.0388,-45 217.1416,-45 225.8808,-45"/>
<polygon fill="#000000" stroke="#000000" points="225.9017,-48.5001 235.9017,-45 225.9016,-41.5001 225.9017,-48.5001"/>
</g>
<!-- Source image 2 -->
<g id="node3" class="node">
<title>Source image 2</title>
<polygon fill="none" stroke="#000000" points="103.1242,-36 -.0414,-36 -.0414,0 103.1242,0 103.1242,-36"/>
<text text-anchor="middle" x="51.5414" y="-13.8" font-family="Times,serif" font-size="14.00" fill="#000000">Source image 2</text>
</g>
<!-- Source image 2&#45;&gt;Effect 1 -->
<g id="edge2" class="edge">
<title>Source image 2-&gt;Effect 1</title>
<path fill="none" stroke="#000000" d="M103.2489,-29.8426C111.9574,-31.8371 120.8799,-33.8806 129.2404,-35.7954"/>
<polygon fill="#000000" stroke="#000000" points="128.5785,-39.2344 139.1076,-38.0553 130.1413,-32.4111 128.5785,-39.2344"/>
</g>
<!-- Output image -->
<g id="node5" class="node">
<title>Output image</title>
<polygon fill="none" stroke="#000000" points="424.8682,-63 332.67,-63 332.67,-27 424.8682,-27 424.8682,-63"/>
<text text-anchor="middle" x="378.7691" y="-40.8" font-family="Times,serif" font-size="14.00" fill="#000000">Output image</text>
</g>
<!-- Effect 2&#45;&gt;Output image -->
<g id="edge4" class="edge">
<title>Effect 2-&gt;Output image</title>
<path fill="none" stroke="#000000" d="M296.6068,-45C304.6548,-45 313.6013,-45 322.5446,-45"/>
<polygon fill="#000000" stroke="#000000" points="322.5924,-48.5001 332.5924,-45 322.5923,-41.5001 322.5924,-48.5001"/>
</g>
</g>
</svg>